<svg xmlns="http://www.w3.org/2000/svg" width="24" height="24" viewBox="0 0 24 24">
    <defs>
        <linearGradient id="wav2eahd1a" x1="100%" x2="0%" y1="0%" y2="100%">
            <stop offset="0%" stop-color="#FFD14E"/>
            <stop offset="100%" stop-color="#F16B25"/>
        </linearGradient>
    </defs>
    <g fill="none" fill-rule="evenodd">
        <g>
            <g>
                <g transform="translate(-521 -73) translate(521 73) translate(2.5 2.5)">
                    <circle cx="9.5" cy="9.5" r="9.5" fill="url(#wav2eahd1a)"/>
                    <path fill="#FFF" d="M9.5 2C13.642 2 17 5.358 17 9.5c0 4.142-3.358 7.5-7.5 7.5C5.358 17 2 13.642 2 9.5 2 5.358 5.358 2 9.5 2zM5.108 6.797H3.98v5.68H5.1v-3.52h.016l1.376 2.448h.728l1.384-2.44h.016v3.512h1.12v-5.68H8.612l-1.744 3.232h-.016L5.108 6.797zm8.17 0H11.23v5.68h2.328l.185-.005c1.138-.062 1.687-.705 1.687-1.563 0-.752-.416-1.264-1.144-1.44v-.016l.136-.06c.516-.26.72-.74.72-1.212 0-.904-.656-1.384-1.864-1.384zm.008 3.232c.648 0 .976.288.976.736 0 .48-.328.72-.864.72h-1.056v-1.456zm-.144-2.24c.616 0 .864.264.864.664 0 .464-.328.664-.816.664h-.848V7.789z" opacity=".546"/>
                </g>
            </g>
        </g>
    </g>
</svg>
